<?xml version="1.0" standalone="no"?><!DOCTYPE svg PUBLIC "-//W3C//DTD SVG 1.1//EN" "http://www.w3.org/Graphics/SVG/1.1/DTD/svg11.dtd"><svg t="1611566251514" class="icon" viewBox="0 0 1024 1024" version="1.1" xmlns="http://www.w3.org/2000/svg" p-id="4246" xmlns:xlink="http://www.w3.org/1999/xlink" width="200" height="200"><defs><style type="text/css"></style></defs><path d="M198.418586 450.018133 198.418586 886.455467C198.418586 898.338133 207.784393 908.002133 219.319564 908.002133L803.295386 908.002133C814.830556 908.002133 824.196365 898.338133 824.196365 886.455467L824.196365 450.359467 502.609165 127.714133 198.418586 450.018133ZM803.295386 950.6688 219.319564 950.6688C184.79749 950.6688 156.700068 921.847467 156.700068 886.455467L156.700068 432.759467 472.863859 97.890133C488.404009 81.399467 515.729638 81.122133 531.812126 97.250133L865.914882 432.439467 865.914882 886.455467C865.914882 921.847467 837.817459 950.6688 803.295386 950.6688L803.295386 950.6688Z" p-id="4247" fill="#d81e06"></path><path d="M657.322667 950.664533 615.6032 950.664533 615.6032 670.877867 407.010133 670.877867 407.010133 950.664533 365.2928 950.664533 365.2928 628.2112 657.322667 628.2112Z" p-id="4248" fill="#d81e06"></path><path d="M956.950945 577.1648C951.610975 577.1648 946.271004 575.074133 942.203449 570.914133L809.455123 435.1488C801.299153 426.807467 801.299153 413.303467 809.455123 404.983467 817.590234 396.642133 830.794145 396.642133 838.950116 404.983467L971.698441 540.7488C979.854412 549.090133 979.854412 562.5728 971.698441 570.914133 967.630886 575.074133 962.290916 577.1648 956.950945 577.1648" p-id="4249" fill="#d81e06"></path><path d="M63.525926 578.935467C58.185956 578.935467 52.845985 576.8448 48.77843 572.6848 40.622459 564.343467 40.622459 550.8608 48.77843 542.519467L181.526756 406.754133C189.682726 398.4128 202.886637 398.4128 211.021748 406.754133 219.177719 415.074133 219.177719 428.578133 211.021748 436.919467L78.273422 572.6848C74.205867 576.8448 68.865896 578.935467 63.525926 578.935467" p-id="4250" fill="#d81e06"></path></svg>