<?xml version="1.0" standalone="no"?><!DOCTYPE svg PUBLIC "-//W3C//DTD SVG 1.1//EN" "http://www.w3.org/Graphics/SVG/1.1/DTD/svg11.dtd"><svg t="1611566331145" class="icon" viewBox="0 0 1024 1024" version="1.1" xmlns="http://www.w3.org/2000/svg" p-id="4572" xmlns:xlink="http://www.w3.org/1999/xlink" width="200" height="200"><defs><style type="text/css"></style></defs><path d="M832 757.333333H355.413333a74.666667 74.666667 0 0 1-73.386666-61.013333L184.746667 170.666667a10.666667 10.666667 0 0 0-10.453334-8.746667H124.586667a32 32 0 0 1 0-64h49.706666a74.666667 74.666667 0 0 1 73.386667 62.08l97.28 524.586667a10.666667 10.666667 0 0 0 10.453333 8.746666H832a32 32 0 0 1 0 64z" p-id="4573"></path><path d="M298.666667 644.906667a32 32 0 0 1-2.133334-64l484.053334-32.213334a53.333333 53.333333 0 0 0 49.28-46.506666l27.946666-223.573334a10.666667 10.666667 0 0 0-10.666666-11.946666H362.666667a32 32 0 0 1 0-64h484.906666a74.666667 74.666667 0 0 1 74.026667 83.84l-27.733333 223.573333a117.546667 117.546667 0 0 1-108.586667 102.613333l-484.053333 32.213334z" p-id="4574"></path><path d="M373.333333 853.333333m-64 0a64 64 0 1 0 128 0 64 64 0 1 0-128 0Z" p-id="4575"></path><path d="M768 853.333333m-64 0a64 64 0 1 0 128 0 64 64 0 1 0-128 0Z" p-id="4576"></path></svg>